<svg xmlns="http://www.w3.org/2000/svg" xmlns:xlink="http://www.w3.org/1999/xlink" version="1.1" x="0px" y="0px" viewBox="0 0 52 65" style="enable-background:new 0 0 52 52;" xml:space="preserve"><style type="text/css">
	.st0{fill:none;stroke:#FFFFFF;stroke-width:2;stroke-miterlimit:10;}
	.st1{fill:none;stroke:#FFFFFF;stroke-width:2;stroke-linecap:round;stroke-miterlimit:10;}
	.st2{fill:#ED1C24;}
	.st3{fill:none;stroke:#FFFFFF;stroke-width:2;stroke-linecap:round;stroke-linejoin:round;stroke-miterlimit:10;}
	.st4{fill:none;}
</style><g fill="#FFFFFF"><g fill="#FFFFFF"><path fill="#FFFFFF" d="M49,49H20.7724609c-0.5522461,0-1-0.4472656-1-1V4c0-0.5527344,0.4477539-1,1-1H49c0.5522461,0,1,0.4472656,1,1v44    C50,48.5527344,49.5522461,49,49,49z M21.7724609,47H48V5H21.7724609V47z"/></g><g><path d="M20.7724609,49H3c-0.5522461,0-1-0.4472656-1-1V15c0-0.5527344,0.4477539-1,1-1h17.7724609c0.5522461,0,1,0.4472656,1,1    v33C21.7724609,48.5527344,21.324707,49,20.7724609,49z M4,47h15.7724609V16H4V47z"/></g><g><path d="M44.8183594,49H37.5c-0.5522461,0-1-0.4472656-1-1V33.6992188c0-0.5527344,0.4477539-1,1-1h7.3183594    c0.5522461,0,1,0.4472656,1,1V48C45.8183594,48.5527344,45.3706055,49,44.8183594,49z M38.5,47h5.3183594V34.6992188H38.5V47z"/></g><g><path d="M32.2270508,16h-8.2724609V6.2998047h8.2724609V16z M25.9545898,14h4.2724609V8.2998047h-4.2724609V14z"/></g><g><path d="M32.2270508,28.0996094h-8.2724609v-9.7001953h8.2724609V28.0996094z M25.9545898,26.0996094h4.2724609v-5.7001953    h-4.2724609V26.0996094z"/></g><g><path d="M44.7724609,16H36.5V6.2998047h8.2724609V16z M38.5,14h4.2724609V8.2998047H38.5V14z"/></g><g><path d="M44.7724609,28.0996094H36.5v-9.7001953h8.2724609V28.0996094z M38.5,26.0996094h4.2724609v-5.7001953H38.5V26.0996094z"/></g><g><path d="M32.2270508,41.2998047h-8.2724609v-9.7001953h8.2724609V41.2998047z M25.9545898,39.2998047h4.2724609v-5.7001953    h-4.2724609V39.2998047z"/></g><g><path d="M16.5454102,30.2998047H8.2724609v-9.7001953h8.2729492V30.2998047z M10.2724609,28.2998047h4.2729492v-5.7001953    h-4.2729492V28.2998047z"/></g><g><path d="M16.5454102,43.5H8.2724609v-9.7001953h8.2729492V43.5z M10.2724609,41.5h4.2729492v-5.7001953h-4.2729492V41.5z"/></g></g></svg>
