<svg width="582" height="402" xmlns="http://www.w3.org/2000/svg">

 <g>
  <title>background</title>
  <rect fill="none" id="canvas_background" height="404" width="584" y="-1" x="-1"/>
 </g>
 <g>
  <title>Layer 1</title>
  <g stroke="null" id="svg_1" fill="#637282">
   <path stroke="null" id="svg_2" d="m484.123222,1.542l-386.246445,0c-52.866455,0 -95.876777,43.008953 -95.876777,95.876777l0,288.884948c0,7.563308 6.132005,13.696682 13.696682,13.696682s13.696682,-6.133374 13.696682,-13.696682l0,-93.303171l523.21327,0l0,93.303171c0,7.563308 6.132005,13.696682 13.696682,13.696682s13.696682,-6.133374 13.696682,-13.696682l0,-288.884948c0,-52.867825 -43.010322,-95.876777 -95.876777,-95.876777zm-454.729857,264.065189l0,-98.647616l523.21327,0l0,98.647616l-523.21327,0zm191.093374,-126.042351l-132.246948,0l0,-23.663758c0,-7.552351 6.144332,-13.696682 13.696682,-13.696682l104.853583,0c7.552351,0 13.696682,6.144332 13.696682,13.696682l0,23.663758zm265.055459,0l-132.246948,0l0,-23.663758c0,-7.552351 6.144332,-13.696682 13.696682,-13.696682l104.853583,0c7.552351,0 13.696682,6.144332 13.696682,13.696682l0,23.663758zm67.064436,0l-39.671071,0l0,-23.663758c0,-22.657052 -18.432995,-41.090047 -41.090047,-41.090047l-104.853583,0c-22.657052,0 -41.090047,18.432995 -41.090047,41.090047l0,23.663758l-78.021782,0l0,-23.663758c0,-22.657052 -18.432995,-41.090047 -41.090047,-41.090047l-104.853583,0c-22.657052,0 -41.090047,18.432995 -41.090047,41.090047l0,23.663758l-31.453062,0l0,-42.146062c0,-37.761754 30.721659,-68.483412 68.483412,-68.483412l386.246445,0c37.761754,0 68.483412,30.721659 68.483412,68.483412l0,42.146062z"/>
  </g>
 </g>
</svg>