<svg xmlns="http://www.w3.org/2000/svg" xmlns:xlink="http://www.w3.org/1999/xlink" version="1.1" x="0px" y="0px" viewBox="0 0 512 640" style="enable-background:new 0 0 512 512;" xml:space="preserve">
  <g fill="#637282">
    <path d="M397,110.542H115c-38.598,0-70,31.401-70,70v210.916c0,5.522,4.477,10,10,10s10-4.478,10-10v-68.121h382v68.121   c0,5.522,4.477,10,10,10s10-4.478,10-10V180.542C467,141.943,435.598,110.542,397,110.542z M65,303.337v-72.023h382v72.023H65z    M204.518,211.313h-96.554v-17.277c0-5.514,4.486-10,10-10h76.554c5.514,0,10,4.486,10,10V211.313z M398.036,211.313h-96.554   v-17.277c0-5.514,4.486-10,10-10h76.554c5.514,0,10,4.486,10,10V211.313z M447,211.313h-28.964v-17.277c0-16.542-13.458-30-30-30   h-76.554c-16.542,0-30,13.458-30,30v17.277h-56.964v-17.277c0-16.542-13.458-30-30-30h-76.554c-16.542,0-30,13.458-30,30v17.277H65   v-30.771c0-27.57,22.43-50,50-50h282c27.57,0,50,22.43,50,50V211.313z"/>
  </g>
</svg>
