<svg xmlns="http://www.w3.org/2000/svg" xmlns:xlink="http://www.w3.org/1999/xlink" version="1.1" x="0px" y="0px" viewBox="0 0 52 65" style="enable-background:new 0 0 52 52;" xml:space="preserve"><style type="text/css">
	.st0{fill:none;stroke:#FFFFFF;stroke-width:2;stroke-linecap:round;stroke-linejoin:round;stroke-miterlimit:10;}
	.st1{fill:none;stroke:#FFFFFF;stroke-width:2;stroke-miterlimit:10;}
	.st2{fill:none;stroke:#FFFFFF;stroke-width:2;stroke-linecap:round;stroke-miterlimit:10;}
</style><g fill="#FFFFFF"><g fill="#FFFFFF"><path fill="#FFFFFF" d="M49,12H3c-0.5522461,0-1-0.4477539-1-1V7c0-0.5522461,0.4477539-1,1-1h46c0.5522461,0,1,0.4477539,1,1v4    C50,11.5522461,49.5522461,12,49,12z M4,10h44V8H4V10z"/></g><g><path d="M45.9995117,8H6C5.4477539,8,5,7.5522461,5,7V3c0-0.5522461,0.4477539-1,1-1h39.9995117c0.5522461,0,1,0.4477539,1,1v4    C46.9995117,7.5522461,46.5517578,8,45.9995117,8z M7,6h37.9995117V4H7V6z"/></g><g><path d="M45.9995117,50h-40c-0.5522461,0-1-0.4477539-1-1V12h2v36h38V12h2v37C46.9995117,49.5522461,46.5517578,50,45.9995117,50z    "/></g><g><path d="M18,23h-8c-0.5522461,0-1-0.4477539-1-1v-7c0-0.5522461,0.4477539-1,1-1h8c0.5522461,0,1,0.4477539,1,1v7    C19,22.5522461,18.5522461,23,18,23z M11,21h6v-5h-6V21z"/></g><g><path d="M30,23h-8c-0.5522461,0-1-0.4477539-1-1v-7c0-0.5522461,0.4477539-1,1-1h8c0.5522461,0,1,0.4477539,1,1v7    C31,22.5522461,30.5522461,23,30,23z M23,21h6v-5h-6V21z"/></g><g><path d="M42,23h-8c-0.5522461,0-1-0.4477539-1-1v-7c0-0.5522461,0.4477539-1,1-1h8c0.5522461,0,1,0.4477539,1,1v7    C43,22.5522461,42.5522461,23,42,23z M35,21h6v-5h-6V21z"/></g><g><path d="M18,34h-8c-0.5522461,0-1-0.4477539-1-1v-7c0-0.5522461,0.4477539-1,1-1h8c0.5522461,0,1,0.4477539,1,1v7    C19,33.5522461,18.5522461,34,18,34z M11,32h6v-5h-6V32z"/></g><g><path d="M30,34h-8c-0.5522461,0-1-0.4477539-1-1v-7c0-0.5522461,0.4477539-1,1-1h8c0.5522461,0,1,0.4477539,1,1v7    C31,33.5522461,30.5522461,34,30,34z M23,32h6v-5h-6V32z"/></g><g><path d="M42,34h-8c-0.5522461,0-1-0.4477539-1-1v-7c0-0.5522461,0.4477539-1,1-1h8c0.5522461,0,1,0.4477539,1,1v7    C43,33.5522461,42.5522461,34,42,34z M35,32h6v-5h-6V32z"/></g><g><path d="M18,45h-8c-0.5522461,0-1-0.4477539-1-1v-7c0-0.5522461,0.4477539-1,1-1h8c0.5522461,0,1,0.4477539,1,1v7    C19,44.5522461,18.5522461,45,18,45z M11,43h6v-5h-6V43z"/></g><g><path d="M31,49h-2V38h-6v11h-2V37c0-0.5522461,0.4477539-1,1-1h8c0.5522461,0,1,0.4477539,1,1V49z"/></g><g><path d="M42,45h-8c-0.5522461,0-1-0.4477539-1-1v-7c0-0.5522461,0.4477539-1,1-1h8c0.5522461,0,1,0.4477539,1,1v7    C43,44.5522461,42.5522461,45,42,45z M35,43h6v-5h-6V43z"/></g></g></svg>
