<svg xmlns="http://www.w3.org/2000/svg" xmlns:xlink="http://www.w3.org/1999/xlink" version="1.1" x="0px" y="0px" viewBox="0 0 52 65" style="enable-background:new 0 0 52 52;" xml:space="preserve">
  <style type="text/css">
	.st0{fill:none;stroke:#2884CE;stroke-width:2;stroke-miterlimit:10;}
	.st1{fill:none;stroke:#2884CE;stroke-width:2;stroke-linecap:round;stroke-miterlimit:10;}
	.st2{fill:#2884CE;}
	.st3{fill:none;stroke:#2884CE;stroke-width:2;stroke-linecap:round;stroke-linejoin:round;stroke-miterlimit:10;}
	.st4{fill:none;}
  </style>

  <g fill="#2884CE">
    <g fill="#2884CE">
      <path fill="#2884CE" d="M43.1025391,50.0000839H10.0771484c-0.5522461,0-1-0.4477539-1-1V19.8003788H3.0000002    c-0.4399414,0-0.828125-0.2875977-0.956543-0.7084961c-0.128418-0.4204102,0.0336914-0.8759766,0.3984375-1.1210938    L25.9375,2.1704955c0.34375-0.2314453,0.7939453-0.2270508,1.1328125,0.0112305l6.8398438,4.8027344v-3.984375    c0-0.5522461,0.4477539-1,1-1h4c0.5522461,0,1,0.4477539,1,1v8.1967773l9.6645508,6.7851563    c0.3569336,0.2504883,0.5102539,0.7036133,0.3789063,1.1196289S49.4360352,19.8003788,49,19.8003788h-4.8974609v29.1997051    C44.1025391,49.55233,43.6547852,50.0000839,43.1025391,50.0000839z M11.0771484,48.0000839h31.0253906V18.8003788    c0-0.5522461,0.4477539-1,1-1h2.7324219l-7.4995117-5.2651367c-0.2666016-0.1870117-0.425293-0.4926758-0.425293-0.8183594    V4.0000854h-2V8.908289c0,0.3730469-0.2075195,0.715332-0.5390625,0.887207    c-0.331543,0.1728516-0.7304688,0.1459961-1.0356445-0.0688477l-7.8520508-5.5131841L6.2788086,17.8003788h3.7983398    c0.5522461,0,1,0.4477539,1,1V48.0000839z"/></g><g><path d="M21.9101563,50.0000839h-8.2949219c-0.5522461,0-1-0.4477539-1-1v-14c0-0.5522461,0.4477539-1,1-1h8.2949219    c0.5522461,0,1,0.4477539,1,1v14C22.9101563,49.55233,22.4624023,50.0000839,21.9101563,50.0000839z M14.6152344,48.0000839    h6.2949219v-12h-6.2949219V48.0000839z"/></g><g><path d="M38.7099609,35.0000839h-9.5996094c-0.6616211,0-1.2001953-0.5385742-1.2001953-1.2001953v-9.5996075    c0-0.6616211,0.5385742-1.2001953,1.2001953-1.2001953h9.5996094c0.6616211,0,1.2001953,0.5385742,1.2001953,1.2001953v9.5996075    C39.9101563,34.4615097,39.371582,35.0000839,38.7099609,35.0000839z M29.9101563,33.0000839h8v-7.9999981h-8V33.0000839z"/>
    </g>
  </g>
</svg>
