<?xml version="1.0" encoding="utf-8"?>
<!-- Generator: Adobe Illustrator 23.0.0, SVG Export Plug-In . SVG Version: 6.00 Build 0)  -->
<svg version="1.1" id="Calque_1" xmlns="http://www.w3.org/2000/svg" xmlns:xlink="http://www.w3.org/1999/xlink" x="0px" y="0px"
	 viewBox="0 0 197.72 30.93" style="enable-background:new 0 0 197.72 30.93;" xml:space="preserve">
<style type="text/css">
	.st0{fill:url(#Tracé_133_1_);}
	.st1{fill:url(#Tracé_134_1_);}
	.st2{fill:url(#Tracé_135_1_);}
	.st3{fill:#181630;}
</style>
<g id="Groupe_167" transform="translate(-420.051 896.468)">
	
		<linearGradient id="Tracé_133_1_" gradientUnits="userSpaceOnUse" x1="231.3621" y1="-473.9486" x2="231.3701" y2="-474.9406" gradientTransform="matrix(26.4241 0 0 -30.1091 -5654.6387 -15166.6006)">
		<stop  offset="0" style="stop-color:#184193"/>
		<stop  offset="1" style="stop-color:#59C5F1"/>
	</linearGradient>
	<path id="Tracé_133" class="st0" d="M469.44-895.02h-2.43v1.8c0,0.03-0.02,0.05-0.05,0.05c-0.01,0-0.01,0-0.02,0l-7.48-3.07
		c-0.28-0.11-0.59-0.11-0.87,0l-12.06,4.96c-0.43,0.18-0.71,0.6-0.71,1.06v23.95c0,0.03,0.02,0.05,0.05,0.05h0h26.32
		c0.03,0,0.05-0.02,0.05-0.05v0v-23.95c0-0.47-0.28-0.89-0.71-1.06l-2.06-0.84c-0.02-0.01-0.03-0.03-0.03-0.05L469.44-895.02z"/>
	
		<linearGradient id="Tracé_134_1_" gradientUnits="userSpaceOnUse" x1="238.8878" y1="-473.9152" x2="238.9048" y2="-474.9062" gradientTransform="matrix(13.212 0 0 -30.202 -2727.3801 -15209.4707)">
		<stop  offset="0" style="stop-color:#184193"/>
		<stop  offset="1" style="stop-color:#59C5F1"/>
	</linearGradient>
	<path id="Tracé_134" class="st1" d="M422.34-866.22h13.21v-24.01c0-0.47-0.28-0.89-0.71-1.06l-12.5-5.14L422.34-866.22z"/>
	
		<linearGradient id="Tracé_135_1_" gradientUnits="userSpaceOnUse" x1="238.8893" y1="-473.9011" x2="238.9063" y2="-474.893" gradientTransform="matrix(13.212 0 0 -30.2 -2667.2024 -15208.542)">
		<stop  offset="0" style="stop-color:#184193"/>
		<stop  offset="1" style="stop-color:#59C5F1"/>
	</linearGradient>
	<path id="Tracé_135" class="st2" d="M482.51-890.23v24.01h13.21v-30.2l-12.5,5.14C482.79-891.11,482.51-890.69,482.51-890.23z"/>
	<g id="Groupe_167-2" transform="translate(504.997 -885.093)">
		<path id="Tracé_136" class="st3" d="M13.61,19.37H9.93L2.29,0.32h4.59l4.94,13.32l4.95-13.32h4.48L13.61,19.37z"/>
		<path id="Tracé_137" class="st3" d="M24.36,19.24V0.32h4.16v18.91H24.36z"/>
		<path id="Tracé_138" class="st3" d="M47.33,19.23l-1.73-4.24h-8l-1.73,4.24h-4.24l8.11-19.05h3.84l8.11,19.05H47.33z M41.6,5.18
			l-2.51,6.13h5.03L41.6,5.18z"/>
		<path id="Tracé_139" class="st3" d="M71.29,13.51c-0.47,1.13-1.18,2.16-2.07,3c-0.92,0.87-2.01,1.55-3.19,2
			c-1.3,0.5-2.68,0.74-4.07,0.73h-7.38V0.32h7.38c1.39-0.02,2.77,0.23,4.07,0.72c1.18,0.45,2.27,1.12,3.19,1.99
			c0.89,0.84,1.59,1.86,2.07,2.99c0.49,1.18,0.74,2.44,0.73,3.72v0.05C72.03,11.06,71.78,12.33,71.29,13.51z M67.67,9.78
			c0.01-0.79-0.13-1.57-0.42-2.3c-0.26-0.68-0.66-1.29-1.16-1.81c-0.51-0.51-1.12-0.91-1.8-1.17c-0.74-0.29-1.53-0.43-2.32-0.42
			h-3.21v11.4h3.21c0.79,0.01,1.58-0.13,2.32-0.41c0.68-0.25,1.29-0.65,1.8-1.16c0.5-0.51,0.9-1.12,1.16-1.78
			c0.29-0.73,0.43-1.51,0.42-2.3V9.78z"/>
		<path id="Tracé_140" class="st3" d="M91.33,14.75c-0.35,1-0.92,1.91-1.66,2.66c-0.74,0.72-1.64,1.27-2.62,1.59
			c-1.11,0.36-2.27,0.54-3.43,0.53c-2.2,0.12-4.36-0.64-6-2.11c-1.46-1.4-2.19-3.5-2.19-6.3V0.32h4.16v10.7
			c-0.09,1.26,0.29,2.51,1.08,3.5c0.78,0.81,1.88,1.24,3,1.17c1.12,0.06,2.21-0.35,3-1.14c0.79-0.95,1.17-2.17,1.08-3.4V0.32h4.16
			v10.67C91.93,12.27,91.74,13.54,91.33,14.75z"/>
		<path id="Tracé_141" class="st3" d="M111.25,17.58c-0.53,0.42-1.1,0.78-1.71,1.07c-0.65,0.31-1.34,0.53-2.04,0.67
			c-0.82,0.16-1.65,0.24-2.49,0.23c-1.33,0.01-2.64-0.25-3.86-0.76c-1.15-0.48-2.2-1.18-3.08-2.07c-0.87-0.89-1.56-1.94-2.03-3.09
			c-0.49-1.21-0.74-2.5-0.73-3.81V9.77c-0.01-1.3,0.24-2.59,0.73-3.8c0.47-1.16,1.16-2.21,2.03-3.11c0.88-0.9,1.94-1.62,3.11-2.11
			c1.27-0.53,2.63-0.79,4-0.77c0.81-0.01,1.62,0.07,2.42,0.22c0.68,0.13,1.35,0.33,1.99,0.59c0.58,0.25,1.13,0.55,1.65,0.92
			c0.5,0.36,0.97,0.75,1.41,1.19l-2.65,3.05c-0.68-0.62-1.44-1.15-2.26-1.57c-0.8-0.39-1.69-0.58-2.58-0.57
			c-0.76-0.01-1.51,0.15-2.2,0.46c-0.66,0.3-1.26,0.73-1.74,1.27c-0.49,0.55-0.88,1.19-1.14,1.88c-0.27,0.73-0.41,1.5-0.41,2.28
			v0.05c-0.01,0.78,0.13,1.56,0.41,2.3c0.25,0.69,0.63,1.33,1.12,1.89c0.48,0.54,1.07,0.98,1.73,1.28c0.7,0.32,1.46,0.48,2.23,0.47
			c0.95,0.03,1.89-0.17,2.74-0.59c0.81-0.44,1.56-0.99,2.23-1.62l2.65,2.67C112.3,16.68,111.79,17.15,111.25,17.58z"/>
	</g>
	<g id="Groupe_168" transform="translate(504.997 -896.468)">
		<path id="Tracé_142" class="st3" d="M11.11,9.74L9.89,7.06H4.24L3.02,9.74H2.29l4.46-9.65h0.68l4.46,9.65H11.11z M7.08,0.87
			L4.54,6.42h5.05L7.08,0.87z"/>
		<path id="Tracé_143" class="st3" d="M17.76,9.91c-2.58,0.09-4.74-1.93-4.82-4.51c0-0.14,0-0.28,0-0.42V4.95
			C12.85,2.31,14.91,0.09,17.55,0c0.04,0,0.08,0,0.13,0c1.28-0.04,2.54,0.41,3.5,1.26l-0.47,0.53c-0.83-0.77-1.94-1.19-3.08-1.15
			c-2.25,0.06-4.02,1.93-3.96,4.18c0,0.04,0,0.07,0,0.11v0.03c-0.18,2.2,1.46,4.13,3.66,4.31c0.15,0.01,0.3,0.02,0.45,0.01
			c1.11-0.01,2.19-0.4,3.05-1.1V5.43h-3.2V4.77h3.89v3.7C20.48,9.39,19.15,9.9,17.76,9.91z"/>
		<path id="Tracé_144" class="st3" d="M24.1,9.74V0.16h6.82v0.66h-6.1v3.76h5.49v0.66h-5.49v3.85h6.17v0.66L24.1,9.74z"/>
		<path id="Tracé_145" class="st3" d="M40.7,9.74l-6.75-8.51v8.51h-0.68V0.16h0.67l6.61,8.34V0.16h0.68v9.58H40.7z"/>
		<path id="Tracé_146" class="st3" d="M48.41,9.91c-2.63,0-4.76-2.13-4.77-4.76c0-0.06,0-0.11,0-0.17V4.95
			C43.57,2.29,45.67,0.08,48.32,0c0.04,0,0.08,0,0.12,0c1.4-0.03,2.75,0.53,3.72,1.53l-0.51,0.52c-0.83-0.9-2-1.41-3.23-1.41
			c-2.26,0.03-4.07,1.89-4.04,4.16c0,0.04,0,0.08,0,0.13v0.03c-0.1,2.28,1.67,4.21,3.95,4.31c0.03,0,0.07,0,0.1,0
			c1.26,0,2.47-0.54,3.3-1.49l0.48,0.47C51.25,9.31,49.86,9.92,48.41,9.91z"/>
		<path id="Tracé_147" class="st3" d="M54.17,9.74V0.16h6.82v0.66h-6.1v3.76h5.49v0.66h-5.49v3.85h6.17v0.66L54.17,9.74z"/>
	</g>
</g>
</svg>
