<?xml version="1.0" encoding="utf-8"?>
<!-- Generator: Adobe Illustrator 23.0.0, SVG Export Plug-In . SVG Version: 6.00 Build 0)  -->
<svg version="1.1" id="Calque_1" xmlns="http://www.w3.org/2000/svg" xmlns:xlink="http://www.w3.org/1999/xlink" x="0px" y="0px"
	 viewBox="0 0 108.89 99.56" style="enable-background:new 0 0 108.89 99.56;" xml:space="preserve">
<style type="text/css">
	.st0{fill:url(#Tracé_32_1_);}
	.st1{fill:url(#Tracé_33_1_);}
	.st2{fill:url(#Tracé_34_1_);}
	.st3{fill:#181630;}
	.st4{fill:#2F82C5;}
</style>
<g id="Groupe_26" transform="translate(-298.685 -215.821)">
	
		<linearGradient id="Tracé_32_1_" gradientUnits="userSpaceOnUse" x1="63.352" y1="677.5002" x2="63.36" y2="676.5082" gradientTransform="matrix(39.21 0 0 -44.6779 -2131.0867 30485.1309)">
		<stop  offset="0" style="stop-color:#184193"/>
		<stop  offset="1" style="stop-color:#59C5F1"/>
	</linearGradient>
	<path id="Tracé_32" class="st0" d="M368.58,217.9h-3.61v2.67c0,0.04-0.04,0.08-0.08,0.07c-0.01,0-0.01,0-0.02,0l-11.09-4.56
		c-0.41-0.17-0.88-0.17-1.29,0l-17.9,7.35c-0.64,0.26-1.06,0.88-1.06,1.57v35.54c0,0.04,0.03,0.08,0.08,0.08h39.06
		c0.04,0,0.08-0.03,0.08-0.08v-35.54c0-0.69-0.42-1.31-1.06-1.57l-3.05-1.25c-0.03-0.01-0.05-0.04-0.05-0.07L368.58,217.9z"/>
	
		<linearGradient id="Tracé_33_1_" gradientUnits="userSpaceOnUse" x1="69.5185" y1="677.5178" x2="69.5355" y2="676.5269" gradientTransform="matrix(19.605 0 0 -44.816 -1054.6249 30579.6719)">
		<stop  offset="0" style="stop-color:#184193"/>
		<stop  offset="1" style="stop-color:#59C5F1"/>
	</linearGradient>
	<path id="Tracé_33" class="st1" d="M298.68,260.64h19.61v-35.62c0-0.69-0.42-1.31-1.06-1.57l-18.55-7.62V260.64z"/>
	
		<linearGradient id="Tracé_34_1_" gradientUnits="userSpaceOnUse" x1="69.5194" y1="677.5328" x2="69.5364" y2="676.5408" gradientTransform="matrix(19.6061 0 0 -44.816 -965.3975 30579.6816)">
		<stop  offset="0" style="stop-color:#184193"/>
		<stop  offset="1" style="stop-color:#59C5F1"/>
	</linearGradient>
	<path id="Tracé_34" class="st2" d="M387.97,225.02v35.62h19.61v-44.82l-18.55,7.62C388.39,223.7,387.97,224.32,387.97,225.02z"/>
	<g id="Groupe_22" transform="translate(299.393 283.911)">
		<path id="Tracé_35" class="st3" d="M10.97,18.78H7.41L0.01,0.31h4.45l4.79,12.91l4.79-12.91h4.35L10.97,18.78z"/>
		<path id="Tracé_36" class="st3" d="M21.4,18.65V0.31h4.03v18.33H21.4z"/>
		<path id="Tracé_37" class="st3" d="M43.66,18.65l-1.68-4.11h-7.75l-1.68,4.11h-4.11L36.3,0.18h3.72l7.86,18.46H43.66z
			 M38.11,5.03l-2.44,5.95h4.87L38.11,5.03z"/>
		<path id="Tracé_38" class="st3" d="M66.89,13.09c-0.46,1.1-1.14,2.09-2,2.91c-0.89,0.84-1.94,1.5-3.09,1.94
			c-1.26,0.48-2.6,0.72-3.94,0.71H50.7V0.31h7.15c1.35-0.02,2.68,0.22,3.94,0.69c1.15,0.43,2.2,1.09,3.09,1.92
			c0.86,0.82,1.54,1.8,2,2.89c0.48,1.14,0.72,2.36,0.71,3.6v0.05C67.6,10.72,67.36,11.95,66.89,13.09z M63.38,9.48
			c0.01-0.76-0.13-1.52-0.41-2.23C62.72,6.6,62.33,6,61.85,5.5C61.35,5,60.76,4.61,60.1,4.36c-0.72-0.28-1.48-0.42-2.25-0.41h-3.12
			v11.05h3.12c0.77,0.01,1.53-0.12,2.25-0.39c0.66-0.25,1.25-0.63,1.74-1.13c0.49-0.5,0.87-1.08,1.13-1.73
			c0.28-0.71,0.42-1.46,0.41-2.23V9.48z"/>
		<path id="Tracé_39" class="st3" d="M86.3,14.3c-0.34,0.97-0.89,1.85-1.61,2.58c-0.72,0.7-1.59,1.23-2.54,1.54
			c-1.07,0.35-2.2,0.53-3.33,0.51c-2.13,0.12-4.22-0.62-5.81-2.04c-1.41-1.36-2.12-3.39-2.12-6.1V0.31h4.03v10.37
			c-0.09,1.22,0.28,2.43,1.05,3.39c0.76,0.79,1.82,1.2,2.91,1.14c1.08,0.06,2.14-0.34,2.91-1.1c0.76-0.92,1.14-2.11,1.05-3.3V0.32
			h4.03v10.34C86.9,11.9,86.7,13.13,86.3,14.3z"/>
		<path id="Tracé_40" class="st3" d="M105.62,17.05c-0.51,0.41-1.07,0.75-1.66,1.03c-0.63,0.3-1.29,0.52-1.98,0.66
			c-0.79,0.16-1.6,0.23-2.41,0.22c-1.29,0.01-2.56-0.24-3.74-0.73c-2.26-0.93-4.04-2.73-4.95-5c-0.48-1.17-0.72-2.43-0.71-3.69V9.48
			c-0.01-1.26,0.23-2.51,0.71-3.68c0.46-1.12,1.12-2.14,1.96-3.01c0.86-0.88,1.88-1.57,3.01-2.04C97.08,0.24,98.4-0.01,99.72,0
			c0.79-0.01,1.57,0.06,2.34,0.21c0.66,0.13,1.3,0.32,1.92,0.58c0.56,0.24,1.1,0.54,1.6,0.89c0.48,0.35,0.94,0.73,1.36,1.15
			l-2.57,2.95c-0.66-0.6-1.39-1.12-2.19-1.52c-0.78-0.37-1.64-0.56-2.5-0.55c-0.74-0.01-1.46,0.14-2.14,0.45
			c-0.64,0.29-1.22,0.71-1.69,1.23c-0.48,0.53-0.85,1.15-1.1,1.82c-0.27,0.71-0.4,1.46-0.39,2.21v0.05c0,0.76,0.13,1.51,0.39,2.23
			c0.25,0.67,0.61,1.29,1.09,1.83c0.97,1.1,2.37,1.72,3.84,1.7c0.92,0.03,1.83-0.17,2.66-0.58c0.79-0.43,1.51-0.96,2.16-1.57
			l2.57,2.59C106.63,16.17,106.14,16.63,105.62,17.05z"/>
	</g>
	<g id="Groupe_23" transform="translate(334.648 274.193)">
		<path id="Tracé_41" class="st3" d="M5.53,6.11L4.77,4.42H1.23L0.46,6.11H0l2.8-6.05h0.43l2.8,6.05H5.53z M3,0.55L1.42,4.02h3.16
			L3,0.55z"/>
		<path id="Tracé_42" class="st3" d="M9.7,6.21C8.08,6.26,6.73,5,6.68,3.38c0-0.09,0-0.17,0-0.26V3.1c-0.06-1.66,1.24-3.04,2.9-3.1
			C9.6,0,9.62,0,9.65,0c0.81-0.03,1.6,0.25,2.2,0.79l-0.29,0.33c-0.52-0.49-1.22-0.74-1.93-0.72C8.22,0.44,7.11,1.62,7.14,3.02
			c0,0.02,0,0.04,0,0.07v0.02c-0.11,1.38,0.91,2.58,2.28,2.7c0.09,0.01,0.19,0.01,0.28,0.01c0.7-0.01,1.37-0.25,1.91-0.69V3.4H9.62
			V2.99h2.43v2.32C11.4,5.88,10.56,6.2,9.7,6.21z"/>
		<path id="Tracé_43" class="st3" d="M13.67,6.11v-6h4.27v0.41h-3.82v2.36h3.44v0.41h-3.44V5.7h3.87v0.41L13.67,6.11z"/>
		<path id="Tracé_44" class="st3" d="M24.07,6.11l-4.23-5.33v5.33h-0.43v-6h0.42l4.14,5.22V0.11h0.43v6H24.07z"/>
		<path id="Tracé_45" class="st3" d="M28.9,6.21c-1.65,0-2.98-1.33-2.99-2.98c0-0.04,0-0.07,0-0.11V3.1
			c-0.05-1.67,1.27-3.05,2.93-3.1c0.02,0,0.04,0,0.07,0c0.88-0.02,1.72,0.33,2.33,0.96l-0.32,0.33c-0.52-0.56-1.26-0.88-2.02-0.88
			c-1.42,0.02-2.55,1.18-2.53,2.6c0,0.03,0,0.06,0,0.08v0.02c-0.06,1.43,1.05,2.64,2.47,2.7c0.02,0,0.04,0,0.06,0
			c0.79,0,1.54-0.34,2.07-0.93l0.3,0.29C30.68,5.84,29.81,6.22,28.9,6.21z"/>
		<path id="Tracé_46" class="st3" d="M32.51,6.11v-6h4.27v0.41h-3.82v2.36h3.44v0.41h-3.44V5.7h3.87v0.41L32.51,6.11z"/>
	</g>
	<g id="Groupe_25" transform="translate(327.764 309.168)">
		<g id="Groupe_24" transform="translate(0)">
			<path id="Tracé_47" class="st4" d="M0,6.1v-6h0.45v6H0z"/>
			<path id="Tracé_48" class="st4" d="M7.5,6.1V0.89L5.13,4.35H5.09L2.72,0.89V6.1H2.29v-6h0.42l2.41,3.55L7.53,0.1h0.42v6H7.5z"/>
			<path id="Tracé_49" class="st4" d="M14.94,6.1V0.89l-2.38,3.46h-0.03l-2.38-3.46V6.1H9.73v-6h0.42l2.41,3.55l2.41-3.55h0.42v6
				H14.94z"/>
			<path id="Tracé_50" class="st4" d="M19.92,6.21c-1.65,0.01-3-1.32-3.01-2.97c0-0.04,0-0.08,0-0.11V3.1
				c-0.05-1.67,1.27-3.06,2.93-3.1s3.06,1.27,3.1,2.93c0,0.05,0,0.1,0,0.15c0.01,0.01,0.01,0.01,0,0.02
				c0.05,1.67-1.27,3.06-2.94,3.1C19.98,6.21,19.95,6.21,19.92,6.21z M22.48,3.11c0.06-1.43-1.06-2.64-2.5-2.7
				c-0.02,0-0.04,0-0.07,0C18.5,0.42,17.36,1.58,17.37,3c0,0.03,0,0.06,0,0.1v0.02c-0.06,1.43,1.06,2.64,2.5,2.7
				c0.02,0,0.04,0,0.07,0c1.42-0.01,2.56-1.17,2.55-2.59c0-0.03,0-0.06,0-0.1V3.11z"/>
			<path id="Tracé_51" class="st4" d="M27.07,6.1h-2.61v-6h2.48c1.17,0,1.95,0.58,1.95,1.47V1.6c0.01,0.65-0.41,1.22-1.02,1.42
				c0.72,0.19,1.35,0.6,1.35,1.43v0.02C29.22,5.47,28.36,6.1,27.07,6.1z M28.43,1.62c0-0.66-0.54-1.11-1.5-1.11H24.9v2.36h1.98
				c0.9,0,1.54-0.44,1.54-1.23L28.43,1.62z M28.76,4.45c0-0.74-0.64-1.17-1.83-1.17H24.9v2.41h2.18c1.03,0,1.68-0.47,1.68-1.23
				L28.76,4.45z"/>
			<path id="Tracé_52" class="st4" d="M30.71,6.1v-6h0.45v6H30.71z"/>
			<path id="Tracé_53" class="st4" d="M33,6.1v-6h0.45V5.7h3.52v0.41L33,6.1z"/>
			<path id="Tracé_54" class="st4" d="M38.36,6.1v-6h0.45v6H38.36z"/>
			<path id="Tracé_55" class="st4" d="M40.65,6.1v-6h4.27v0.41H41.1v2.36h3.44v0.41H41.1V5.7h3.87v0.41L40.65,6.1z"/>
			<path id="Tracé_56" class="st4" d="M50.72,6.1l-1.91-2.49h-1.96V6.1H46.4v-6h2.52c1.29,0,2.14,0.7,2.14,1.71v0.02
				c0,1-0.75,1.58-1.76,1.72l1.98,2.56L50.72,6.1z M50.62,1.83c0-0.81-0.63-1.31-1.72-1.31h-2.05v2.7h2.02c1,0,1.75-0.51,1.75-1.37
				V1.83z"/>
		</g>
	</g>
</g>
</svg>
