<?xml version="1.0" encoding="utf-8"?>
<!-- Generator: Adobe Illustrator 23.0.3, SVG Export Plug-In . SVG Version: 6.00 Build 0)  -->
<svg version="1.1" id="Calque_1" xmlns="http://www.w3.org/2000/svg" xmlns:xlink="http://www.w3.org/1999/xlink" x="0px" y="0px"
	 viewBox="0 0 29.8 23.4" style="enable-background:new 0 0 29.8 23.4;" xml:space="preserve">
<style type="text/css">
	.st0{fill:#637282;}
</style>
<g id="Groupe_163" transform="translate(0.5 0.5)">
	<g id="Groupe_162" transform="translate(-0.5 -0.5)">
		<g id="Groupe_161" transform="translate(0 0)">
			<path id="Tracé_129" class="st0" d="M29.6,0.2c0,0-0.1-0.1-0.1-0.1L14.9,2.4l-13.3-2L0.4,0.2H0.3c0,0-0.1,0-0.1,0.1
				c0,0-0.1,0.1-0.1,0.1l0,0v15.1l0,0c0,0.1,0,0.1,0.1,0.2l0,0L0.9,16l13.9,7.2c0,0,0.1,0,0.1,0l0,0c0,0,0.1,0,0.1,0l14.6-7.6
				c0.1,0,0.1-0.1,0.1-0.2l0,0V0.4l0,0C29.7,0.3,29.7,0.3,29.6,0.2z M4.6,17.4l-1.9-1l-1.6-0.8l0,0L3,15.3l13.7,6.6l-1.8,0.9
				L4.6,17.4z M19.1,13.4V5.2L21,5v8.8L19.1,13.4z M21.3,13.8V4.9l2.1-0.2v9.4L21.3,13.8z M23.8,14.2V4.5c0-0.1-0.1-0.2-0.2-0.2
				c0,0,0,0,0,0h0l-4.7,0.5c-0.1,0-0.2,0.1-0.2,0.2v8.4l-3.5-0.6V2.9l14-2.2v14.6L23.8,14.2z M28.7,15.6L27,16.5l-13.1-3.1l1-0.2
				L28.7,15.6z M5.4,14.9l2.1-0.4l13.3,5.2l-1.9,1L5.4,14.9z M18.8,20.8l-1.9,1L3.3,15.2l1.9-0.3L18.8,20.8z M7.7,14.5l2-0.3
				l13.2,4.5l-1.9,1L7.7,14.5z M9.9,14.1l1.7-0.3l13.2,3.8l-1.8,1L9.9,14.1z M11.9,13.7l1.6-0.3l13.2,3.1l-1.8,1L11.9,13.7z
				 M0.6,0.6l14.1,2.2v9.9L0.6,15.2V0.6z"/>
			<path id="Tracé_130" class="st0" d="M14.9,23.4c0,0-0.1,0-0.1,0h0l0,0L0.2,15.8C0.1,15.7,0,15.6,0,15.5V0.4c0-0.1,0-0.2,0.1-0.2
				C0.1,0.1,0.2,0,0.3,0h0.1l1.2,0.2l13.3,2L29.5,0c0.1,0,0.2,0,0.3,0.1c0.1,0.1,0.1,0.2,0.1,0.2v15.1c0,0.1-0.1,0.3-0.2,0.3
				l-14.5,7.6C15.1,23.4,15,23.4,14.9,23.4z M14.9,23.1C14.9,23.1,14.9,23.1,14.9,23.1L14.9,23.1l14.6-7.6l0-15.1l0,0c0,0,0,0,0,0
				L14.9,2.6h0l-13.3-2L0.4,0.3l0,0l0,15.1L1,15.8L14.9,23.1z M0.3,0.3L0.3,0.3z M14.9,23L0.7,15.5l2.4-0.4l0,0l2.1-0.4h0l2-0.3
				l-0.1,0L9.3,14l0,0l2.3-0.4l0,0l1.9-0.3l0.1,0l1.3-0.2h0l14.2,2.5L27,16.7l0,0l-1.9,1l0,0l-1.8,0.9l0,0l-2.1,1.1h0l-2.3,1.2l0,0
				L16.9,22l0,0L14.9,23z M1.7,15.7l13.3,6.9l1.4-0.7L3,15.4L1.7,15.7z M3.8,15.3l13.1,6.3l1.6-0.8L5.1,15.1L3.8,15.3z M6,15l13,5.6
				l1.5-0.8L7.5,14.7L6,15z M8.3,14.5l12.6,4.9l1.5-0.8L9.7,14.3L8.3,14.5z M10.6,14.1L23,18.4l1.4-0.7l-12.8-3.7L10.6,14.1z
				 M12.6,13.8L25,17.4l1.3-0.7l-12.8-3L12.6,13.8z M14.7,13.4l12.3,2.9l1.3-0.7l-13.3-2.3L14.7,13.4z M29.3,15.4l-5.7-1V4.5
				c0,0,0-0.1-0.1-0.1c0,0,0,0,0,0l-4.7,0.5c0,0,0,0,0,0v8.5L15,12.9V2.7l14.4-2.3V15.4z M23.9,14.1L29,15V0.8L15.3,3v9.6l3.2,0.5
				V4.9c0-0.2,0.2-0.4,0.4-0.4l4.7-0.5c0.2,0,0.4,0.2,0.4,0.4c0,0,0,0,0,0L23.9,14.1z M0.5,15.4V0.4l14.4,2.3v10.2L0.5,15.4z
				 M0.8,0.8V15l13.7-2.4V3L0.8,0.8z M23.5,14.4L21.2,14v0L19,13.5V5l2.3-0.2l2.3-0.2L23.5,14.4z M21.4,13.7l1.8,0.3v-9l-1.8,0.2
				V13.7z M19.3,13.3l1.6,0.3V5.2l-1.6,0.2V13.3z"/>
		</g>
	</g>
</g>
</svg>
