<svg xmlns="http://www.w3.org/2000/svg" xmlns:xlink="http://www.w3.org/1999/xlink" version="1.1" x="0px" y="0px" viewBox="0 0 52 65" style="enable-background:new 0 0 52 52;" xml:space="preserve"><style type="text/css">
	.st0{fill:none;stroke:#000000;stroke-width:2;stroke-linecap:round;stroke-miterlimit:10;}
	.st1{fill:none;stroke:#000000;stroke-width:2;stroke-linecap:round;stroke-linejoin:round;stroke-miterlimit:10;}
	.st2{fill:none;stroke:#000000;stroke-width:2;stroke-linecap:round;stroke-linejoin:round;stroke-miterlimit:6;}
	.st3{fill:none;stroke:#000000;stroke-width:2;stroke-miterlimit:10;}
	.st4{fill:none;stroke:#000000;stroke-width:2;stroke-linejoin:round;stroke-miterlimit:10;}
</style><g fill="#637282"><g fill="#637282"><path d="M11.7016602,47.5c-0.2456055,0-0.4912109-0.0893555-0.684082-0.2705078    c-0.402832-0.3779297-0.4233398-1.0107422-0.0454102-1.4135742l4.331543-4.6191406    c0.1889648-0.2016602,0.453125-0.315918,0.7294922-0.315918h30.2416992V8.1757813H4v32.7050781h5.8041992    c0.5522461,0,1,0.4477539,1,1s-0.4477539,1-1,1H3c-0.5522461,0-1-0.4477539-1-1V7.1757813c0-0.5522461,0.4477539-1,1-1h44.2749023    c0.5522461,0,1,0.4477539,1,1v34.7050781c0,0.5522461-0.4477539,1-1,1H16.4663086l-4.0351563,4.3032227    C12.234375,47.394043,11.9682617,47.5,11.7016602,47.5z"/></g><g><path d="M29.2583008,26.5703125H18.8125c-0.5522461,0-1-0.4477539-1-1s0.4477539-1,1-1h10.4458008c0.5522461,0,1,0.4477539,1,1    S29.8105469,26.5703125,29.2583008,26.5703125z"/></g><g fill="#637282"><g fill="#637282"><path d="M25.1743164,42.8808594c-0.5512695,0-0.9985352-0.4462891-1-0.9975586l-0.0102539-4.5     c-0.0014648-0.5522461,0.4453125-1.0009766,0.9975586-1.0024414c0.0009766,0,0.0019531,0,0.0024414,0     c0.5512695,0,0.9985352,0.4462891,1,0.9975586l0.0102539,4.5c0.0014648,0.5522461-0.4453125,1.0009766-0.9975586,1.0024414     C25.1757813,42.8808594,25.1748047,42.8808594,25.1743164,42.8808594z"/></g><g fill="#637282"><path d="M25.1474609,31.0703125c-0.5512695,0-0.9985352-0.4462891-1-0.9975586l-0.0102539-4.5     c-0.0014648-0.5522461,0.4453125-1.0009766,0.9975586-1.0024414c0.0009766,0,0.0019531,0,0.0024414,0     c0.5512695,0,0.9985352,0.4462891,1,0.9975586l0.0102539,4.5c0.0014648,0.5522461-0.4453125,1.0009766-0.9975586,1.0024414     C25.1489258,31.0703125,25.1479492,31.0703125,25.1474609,31.0703125z"/></g></g><g fill="#637282"><path d="M32.2290039,44.965332c-0.5522461,0-1-0.4477539-1-1v-3.6791992c0-0.5522461,0.4477539-1,1-1s1,0.4477539,1,1v3.6791992    C33.2290039,44.5175781,32.78125,44.965332,32.2290039,44.965332z"/></g><g fill="#637282"><path d="M41.3330078,44.965332c-0.5522461,0-1-0.4477539-1-1v-3.6791992c0-0.5522461,0.4477539-1,1-1s1,0.4477539,1,1v3.6791992    C42.3330078,44.5175781,41.8852539,44.965332,41.3330078,44.965332z"/></g><g fill="#637282"><g fill="#637282"><path d="M39.4125977,26.019043h-4.5c-0.5522461,0-1-0.4477539-1-1v-4.3540039c0-0.5522461,0.4477539-1,1-1s1,0.4477539,1,1     v3.3540039h3.5c0.5522461,0,1,0.4477539,1,1S39.9648438,26.019043,39.4125977,26.019043z"/></g><g fill="#637282"><path d="M47.2749023,26.019043h-4.5c-0.5522461,0-1-0.4477539-1-1s0.4477539-1,1-1h4.5c0.5522461,0,1,0.4477539,1,1     S47.8271484,26.019043,47.2749023,26.019043z"/></g></g><g fill="#637282"><path d="M49,18.7631836h-3.8334961c-0.5522461,0-1-0.4477539-1-1s0.4477539-1,1-1H49c0.5522461,0,1,0.4477539,1,1    S49.5522461,18.7631836,49,18.7631836z"/></g><g fill="#637282"><path d="M49,12.3251953h-3.8334961c-0.5522461,0-1-0.4477539-1-1s0.4477539-1,1-1H49c0.5522461,0,1,0.4477539,1,1    S49.5522461,12.3251953,49,12.3251953z"/></g><g fill="#637282"><path d="M34.9125977,16.2084961c-0.5522461,0-1-0.4477539-1-1V7.1757813c0-0.5522461,0.4477539-1,1-1s1,0.4477539,1,1v8.0327148    C35.9125977,15.7607422,35.4648438,16.2084961,34.9125977,16.2084961z"/></g><g fill="#637282"><path d="M24.0351563,10.628418c-0.5522461,0-1-0.4477539-1-1V5.5c0-0.5522461,0.4477539-1,1-1s1,0.4477539,1,1v4.128418    C25.0351563,10.1806641,24.5874023,10.628418,24.0351563,10.628418z"/></g><g fill="#637282"><path d="M11.0498047,10.628418c-0.5522461,0-1-0.4477539-1-1V5.5c0-0.5522461,0.4477539-1,1-1s1,0.4477539,1,1v4.128418    C12.0498047,10.1806641,11.6020508,10.628418,11.0498047,10.628418z"/></g><g fill="#637282"><path d="M11.5292969,26.5703125H3c-0.5522461,0-1-0.4477539-1-1s0.4477539-1,1-1h8.5292969c0.5522461,0,1,0.4477539,1,1    S12.081543,26.5703125,11.5292969,26.5703125z"/></g><g fill="#637282"><g fill="#637282"><path d="M7.7915039,26.019043c-0.5522461,0-1-0.4477539-1-1v-4.5c0-0.5522461,0.4477539-1,1-1s1,0.4477539,1,1v4.5     C8.7915039,25.5712891,8.34375,26.019043,7.7915039,26.019043z"/></g><g fill="#637282"><path d="M7.7915039,13.0639648c-0.5522461,0-1-0.4477539-1-1v-4.5c0-0.5522461,0.4477539-1,1-1s1,0.4477539,1,1v4.5     C8.7915039,12.6162109,8.34375,13.0639648,7.7915039,13.0639648z"/></g></g></g></svg>
